<svg xmlns="http://www.w3.org/2000/svg" viewBox="0 0 520 356"><defs><style>.a,.e{fill:none;}.a,.b,.e{stroke:#579ed2;stroke-miterlimit:10;stroke-width:2.06px;}.a{opacity:0.33;}.b{fill:#fff;}.c{fill:#529ed3;}.d{fill:#23487c;}</style></defs><title>sensor-data-collection</title><line class="a" x1="493.54" y1="52.3" x2="445.33" y2="113.2"/><circle class="b" cx="493.54" cy="52.3" r="23.46"/><line class="a" x1="380.45" y1="310.73" x2="459.5" y2="347.12"/><line class="a" x1="266.43" y1="297.71" x2="380.45" y2="310.73"/><line class="a" x1="380.45" y1="310.73" x2="259.5" y2="180.73"/><line class="a" x1="94.96" y1="127.68" x2="140.18" y2="69.21"/><line class="a" x1="94.96" y1="127.68" x2="14.81" y2="65.94"/><line class="a" x1="150.69" y1="233.86" x2="79.97" y2="210.04"/><line class="a" x1="93.44" y1="344.79" x2="150.69" y2="233.86"/><line class="a" x1="94.96" y1="127.68" x2="91.62" y2="25.47"/><line class="a" x1="244.14" y1="90.61" x2="200.26" y2="36.86"/><line class="a" x1="94.96" y1="127.68" x2="244.14" y2="90.61"/><line class="a" x1="150.69" y1="233.86" x2="94.96" y2="127.68"/><line class="a" x1="25.83" y1="176.33" x2="94.96" y2="127.68"/><line class="a" x1="150.69" y1="233.86" x2="45.38" y2="289.59"/><line class="a" x1="259.5" y1="180.73" x2="170.24" y2="325.39"/><line class="a" x1="445.33" y1="113.2" x2="411.91" y2="53.41"/><line class="a" x1="445.33" y1="113.2" x2="492.54" y2="138.5"/><line class="a" x1="401.26" y1="223.55" x2="484.65" y2="282.84"/><line class="a" x1="492.54" y1="194.04" x2="401.26" y2="223.55"/><circle class="b" cx="492.54" cy="194.04" r="23.46"/><circle class="b" cx="484.65" cy="282.84" r="23.46"/><circle class="b" cx="45.38" cy="289.59" r="23.46"/><circle class="b" cx="26.46" cy="176.33" r="23.46"/><circle class="b" cx="91.62" cy="25.47" r="23.46"/><circle class="b" cx="200.26" cy="36.86" r="23.46"/><line class="a" x1="259.5" y1="180.73" x2="150.69" y2="233.86"/><line class="a" x1="94.96" y1="127.68" x2="259.5" y2="180.73"/><line class="a" x1="244.14" y1="90.61" x2="259.5" y2="180.73"/><line class="a" x1="353.7" y1="120.45" x2="259.5" y2="180.73"/><line class="a" x1="401.26" y1="223.55" x2="259.5" y2="180.73"/><line class="a" x1="266.43" y1="297.71" x2="259.5" y2="180.73"/><circle class="b" cx="94.96" cy="127.68" r="30.44"/><line class="a" x1="346.62" y1="25.47" x2="244.14" y2="90.61"/><line class="a" x1="353.7" y1="120.45" x2="346.62" y2="25.47"/><line class="a" x1="445.33" y1="113.2" x2="353.7" y2="120.45"/><circle class="b" cx="346.62" cy="25.47" r="23.46"/><circle class="b" cx="445.33" cy="113.2" r="23.46"/><circle class="c" cx="411.91" cy="53.41" r="7.9"/><circle class="c" cx="492.54" cy="138.5" r="7.9"/><circle class="c" cx="334.78" cy="347.12" r="7.9"/><circle class="c" cx="459.5" cy="347.12" r="7.9"/><circle class="c" cx="93.44" cy="344.79" r="7.9"/><circle class="c" cx="14.81" cy="65.94" r="7.9"/><circle class="c" cx="140.18" cy="69.21" r="7.9" transform="translate(-12.18 104.24) rotate(-39.22)"/><circle class="c" cx="79.97" cy="210.04" r="7.9" transform="translate(-114.8 97.89) rotate(-39.22)"/><circle class="b" cx="259.5" cy="180.73" r="37.26"/><path class="d" d="M285.61,177.94l-9-2.21-8.44-8.54a5,5,0,0,0-3.58-1.5H248.07a5,5,0,0,0-4.15,2.19l-5.39,7.85-6.14,1.48a2.57,2.57,0,0,0-2,2.5v6.89a1.94,1.94,0,0,0,1.93,1.95h4a7.16,7.16,0,1,0,14.31,0h17.72a7.16,7.16,0,1,0,14.31,0h4a1.94,1.94,0,0,0,1.93-1.95v-4.87A3.9,3.9,0,0,0,285.61,177.94Zm-42.13,13.6a3,3,0,1,1,3-3A3,3,0,0,1,243.48,191.54Zm10.26-16H243l3.92-5.71a1.66,1.66,0,0,1,1.36-.72h5.45Zm3.36,0v-6.43h7.48a1.64,1.64,0,0,1,1.18.49l5.87,5.94Zm18.41,16a3,3,0,1,1,3-3A3,3,0,0,1,275.52,191.54Z"/><line class="a" x1="353.7" y1="120.45" x2="401.26" y2="223.55"/><line class="a" x1="244.14" y1="90.61" x2="353.7" y2="120.45"/><line class="a" x1="170.24" y1="325.39" x2="150.69" y2="233.86"/><line class="a" x1="266.43" y1="297.71" x2="170.24" y2="325.39"/><circle class="b" cx="266.43" cy="297.71" r="30.45"/><circle class="b" cx="150.69" cy="233.86" r="30.45"/><circle class="b" cx="353.7" cy="120.45" r="30.44"/><circle class="b" cx="244.14" cy="90.61" r="30.44"/><circle class="b" cx="170.24" cy="325.39" r="23.46"/><line class="a" x1="380.45" y1="310.73" x2="334.78" y2="347.12"/><line class="a" x1="401.26" y1="223.55" x2="380.45" y2="310.73"/><circle class="b" cx="380.45" cy="310.73" r="23.46"/><circle class="b" cx="401.26" cy="223.55" r="30.44"/><path class="d" d="M256.53,300.4l1.28-1.91a1,1,0,0,1,.92-.46l1.14.06a1,1,0,0,0,.64-.18l2-1.39a7.37,7.37,0,0,0,3.26,1.1,8.75,8.75,0,0,1,8-7.94,7.35,7.35,0,1,0-14.55,2l-13.1,8.91a1,1,0,0,0-.27,1.44l.86,1.26a1,1,0,0,0,.54.4l2.7.87a1,1,0,0,0,.9-.13l1.41-1a1,1,0,0,0,.34-.38l.83-1.6a1,1,0,0,1,.84-.56l1.44-.11A1,1,0,0,0,256.53,300.4Zm11.64-13.24a1.67,1.67,0,0,1,1.88,0,1.66,1.66,0,1,1-1.88,0Zm8.57-7.05a8.42,8.42,0,0,0-6,2.54,8.65,8.65,0,0,1,1.36.93,6.82,6.82,0,0,1,9.56,9.73,6.88,6.88,0,0,1-1.09.91,7.35,7.35,0,0,0-11.22-1,7.31,7.31,0,0,0-2.11,4.4,7.35,7.35,0,0,0,.47,3.51l-11.2,11.2a1,1,0,0,0,0,1.47l1.08,1.08a1,1,0,0,0,.61.3l2.82.35a1,1,0,0,0,.86-.3l1.2-1.2a1,1,0,0,0,.26-.44l.51-1.73a1,1,0,0,1,.73-.71l1.4-.38a1,1,0,0,0,.68-.59l.9-2.11a1,1,0,0,1,.82-.62l1.13-.15a1,1,0,0,0,.6-.29l1.74-1.74a7.35,7.35,0,0,0,9.5-9.64,8.44,8.44,0,0,0-4.59-15.53Zm1.21,17.25a1.67,1.67,0,1,1,.18-2.13,6.83,6.83,0,0,1-1.39.14h0a.81.81,0,1,0,0,1.62h0a8.45,8.45,0,0,0,1.55-.15A1.65,1.65,0,0,1,277.95,297.36Z"/><path class="d" d="M113.33,126.29l.5.48a1,1,0,0,0,1.46-.06l.37-.42a1,1,0,0,0-.05-1.39l-.59-.58a2.72,2.72,0,0,0-2.54-.71L98.26,127a1,1,0,0,1-1-.27l-1.37-1.37a2.66,2.66,0,0,0-1.88-.78H89.65v-2h1.44a.7.7,0,0,0,.7-.7v-1a.7.7,0,0,0-.7-.7H85.93a.7.7,0,0,0-.7.7v1a.7.7,0,0,0,.7.7h1.44v2H82.25v-1.94A1.89,1.89,0,0,0,81,120.87l-6.27-2.15A1.89,1.89,0,0,0,72.27,120l-1.07,3.76a1.9,1.9,0,0,0,1.26,2.33l7.1,2.17a1.86,1.86,0,0,0,.41.07v7.41a1,1,0,0,0,1,1h19.55a1,1,0,0,0,.76-.34l7.94-9a2.58,2.58,0,0,1,1.16-.76l1.94-.61A1,1,0,0,1,113.33,126.29Zm-33.53-.38L73.54,124l.84-2.93,5.47,1.87Z"/><path class="d" d="M117.19,133.72c0-.1-.09-.3-.13-.4-.33-.86-2.26-4.26-2.26-4.26s-1.93,3.4-2.26,4.26a4.15,4.15,0,0,0-.13.4,2.46,2.46,0,1,0,4.78,0Z"/><path class="d" d="M485.69,188.06a9.53,9.53,0,0,0-1.13-.22,10,10,0,0,0-1.38-.09,7.17,7.17,0,0,0-2.55.44,5.32,5.32,0,0,0-2,1.24,5.6,5.6,0,0,0-1.25,2,7.51,7.51,0,0,0-.43,2.61,7.61,7.61,0,0,0,.45,2.73,5.17,5.17,0,0,0,3.24,3.16,7.53,7.53,0,0,0,2.49.4,9,9,0,0,0,1.43-.09,10.64,10.64,0,0,0,1.11-.26,7.18,7.18,0,0,0,.87-.31l.87-.38v-2.9h-.32l-.56.46a7,7,0,0,1-.74.5,4.38,4.38,0,0,1-1,.46,3.84,3.84,0,0,1-1.13.17,4,4,0,0,1-1.2-.19,3,3,0,0,1-1.11-.64,3.33,3.33,0,0,1-.81-1.2,4.92,4.92,0,0,1-.32-1.9,5.11,5.11,0,0,1,.3-1.85,3.36,3.36,0,0,1,.78-1.23,3.05,3.05,0,0,1,1.1-.69,3.77,3.77,0,0,1,1.25-.21,3.42,3.42,0,0,1,1.11.18,5.47,5.47,0,0,1,1,.44,7.73,7.73,0,0,1,.79.53l.57.46h.36v-2.94l-.78-.35a8.18,8.18,0,0,0-1-.35"/><path class="d" d="M497.69,195.81a3.64,3.64,0,0,1-.68,1.31,2.51,2.51,0,0,1-1,.72,2.89,2.89,0,0,1-1.15.23,3,3,0,0,1-1.15-.23,2.5,2.5,0,0,1-1-.71,3.63,3.63,0,0,1-.65-1.24,6,6,0,0,1-.25-1.84,6.11,6.11,0,0,1,.26-1.86,3.45,3.45,0,0,1,.66-1.26,2.61,2.61,0,0,1,1-.7,3,3,0,0,1,2.24,0,2.47,2.47,0,0,1,1,.71,3.61,3.61,0,0,1,.66,1.24,6,6,0,0,1,.25,1.85,6.35,6.35,0,0,1-.22,1.77m-2.78-8.07a6.11,6.11,0,0,0-4.58,1.7,7.22,7.22,0,0,0,0,9.21,7,7,0,0,0,9.17,0,7.21,7.21,0,0,0,0-9.21,6.13,6.13,0,0,0-4.58-1.7"/><path class="d" d="M505.06,193.33l.59-.45q.42-.32.83-.7a5,5,0,0,0,1-1.19,2.47,2.47,0,0,0,.32-1.22,1.82,1.82,0,0,0-.67-1.51,3,3,0,0,0-1.94-.53,5.77,5.77,0,0,0-1.26.14,5.54,5.54,0,0,0-1,.28v1.5h.15a4,4,0,0,1,.86-.44,2.49,2.49,0,0,1,.88-.17,1.29,1.29,0,0,1,.86.25.89.89,0,0,1,.3.72,1.54,1.54,0,0,1-.23.78,4.65,4.65,0,0,1-.78.93q-.37.36-1,.85t-1.22.94v1.12h5.31v-1.29Z"/><path class="d" d="M242.5,81a.74.74,0,0,1-.66-.41L239,75l-.9.9a.74.74,0,0,1-.52.22H232a.74.74,0,1,1,0-1.48h5.34l1.42-1.42a.74.74,0,0,1,1.19.19l2.46,4.94,2.7-8.13a.74.74,0,0,1,.65-.51.73.73,0,0,1,.72.41l2.81,5.63.9-.9a.74.74,0,0,1,.52-.22h5.59a.74.74,0,1,1,0,1.48H251l-1.42,1.42a.74.74,0,0,1-1.19-.19l-2.46-4.94-2.7,8.13a.74.74,0,0,1-.65.51Z"/><path class="d" d="M259.39,84.77h-3.11V82.6a.45.45,0,0,0-.45-.45h-5.09a.45.45,0,0,0-.45.45v2.17H238V82.6a.45.45,0,0,0-.45-.45h-5.09a.45.45,0,0,0-.45.45v2.17h-3.11a1.45,1.45,0,0,0-1.45,1.45V105a1.45,1.45,0,0,0,1.45,1.45h30.49a1.45,1.45,0,0,0,1.45-1.45V86.22A1.45,1.45,0,0,0,259.39,84.77ZM238,92.45a.45.45,0,0,1-.45.45h-5.09a.45.45,0,0,1-.45-.45v-.9a.45.45,0,0,1,.45-.45h5.09a.45.45,0,0,1,.45.45Zm18.29,0a.45.45,0,0,1-.45.45h-1.64v1.64a.45.45,0,0,1-.45.45h-.9a.45.45,0,0,1-.45-.45V92.9h-1.64a.45.45,0,0,1-.45-.45v-.9a.45.45,0,0,1,.45-.45h1.64V89.46a.45.45,0,0,1,.45-.45h.9a.45.45,0,0,1,.45.45V91.1h1.64a.45.45,0,0,1,.45.45Z"/><path class="d" d="M140.22,218.18l-2.77,2.77a1.53,1.53,0,0,0,0,2.17l1.47,1.47,4.94-4.94-1.47-1.47A1.53,1.53,0,0,0,140.22,218.18Z"/><path class="d" d="M160.06,217H150.9a5.69,5.69,0,0,0-4.05,1.68l-9,9a5.18,5.18,0,0,0-1.53,3.69v14.25a3.47,3.47,0,0,0,3.47,3.47h20.29a3.47,3.47,0,0,0,3.47-3.47V220.5A3.47,3.47,0,0,0,160.06,217Zm-10.15,26.75a5,5,0,0,1-5-5c0-2.79,5-10.09,5-10.09s5,7.3,5,10.09A5,5,0,0,1,149.92,243.79Zm7.19-24.53L154,222.35a1.47,1.47,0,0,1-1,.43h-7.06a.29.29,0,0,1-.2-.49l2.34-2.34a4,4,0,0,1,2.83-1.17h6A.29.29,0,0,1,157.11,219.26Z"/><path class="d" d="M152.25,235a6.28,6.28,0,0,1,1.43,4.18c-.21,2.3-3.76,3.39-3.76,3.39C154,240.14,152.25,235,152.25,235Z"/><path class="d" d="M492.67,276.92a7.11,7.11,0,0,0-13.08-5.56l-1.92,4.52a.88.88,0,0,0,.47,1.16l.8.34a.88.88,0,0,0,1.16-.47l.29-.68-.89-.38.44-1,1.2-.35.88-2.07a4.47,4.47,0,0,1,8.23,3.5l-1.52,3.57h2.86Z"/><path class="d" d="M494.44,280.51H474.85a.9.9,0,0,0-.9.9v12.87a.9.9,0,0,0,.9.9h19.59a.9.9,0,0,0,.9-.9V281.41A.9.9,0,0,0,494.44,280.51Zm-8.61,7.42.53,4.06a.36.36,0,0,1-.35.4h-2.74a.36.36,0,0,1-.35-.4l.53-4.06a.36.36,0,0,0-.15-.34,2.35,2.35,0,1,1,2.68,0A.36.36,0,0,0,485.83,287.93Z"/><path class="d" d="M363,31.54a.78.78,0,0,0-.7.43,3,3,0,0,1-5.14.31l-.12-.18a3.57,3.57,0,0,0-.24-.36,4.53,4.53,0,0,0-3.7-1.88,4.61,4.61,0,0,0-3.81,2l-.07.12a3,3,0,0,1-5.12.28l-.12-.18a3.55,3.55,0,0,0-.24-.36,4.53,4.53,0,0,0-3.7-1.88,4.61,4.61,0,0,0-3.81,2l-.07.12a3,3,0,0,1-5.12.28l-.12-.18a3.43,3.43,0,0,0-.25-.38.78.78,0,1,0-1.22,1,2.24,2.24,0,0,1,.14.21c.05.09.12.19.19.29a4.61,4.61,0,0,0,7.79-.5,3,3,0,0,1,2.48-1.28,3,3,0,0,1,2.44,1.25l0,0a2.22,2.22,0,0,1,.14.21c.05.09.12.19.19.29a4.61,4.61,0,0,0,7.79-.5,3,3,0,0,1,2.48-1.28,3,3,0,0,1,2.44,1.25l0,0a2.25,2.25,0,0,1,.14.21c.05.09.12.19.19.29a4.61,4.61,0,0,0,7.79-.5.78.78,0,0,0,.09-.37h0A.78.78,0,0,0,363,31.54Z"/><path class="d" d="M346.52,31.31a3.37,3.37,0,0,0,1.49-6.4V20.24h2.75a.59.59,0,0,0,0-1.17H348V17.55h2.75a.59.59,0,0,0,0-1.17H348V14.85h2.75a.59.59,0,0,0,0-1.17H348v-1a1.49,1.49,0,1,0-3,0V24.91a3.37,3.37,0,0,0,1.49,6.4Z"/><path class="d" d="M329.75,28.38c.05.09.12.19.19.29a4.61,4.61,0,0,0,7.79-.5,3,3,0,0,1,2.48-1.28.78.78,0,1,0,0-1.56,4.61,4.61,0,0,0-3.81,2l-.07.12a3,3,0,0,1-5.12.28l-.12-.18a3.44,3.44,0,0,0-.25-.38.78.78,0,0,0-1.22,1A2.26,2.26,0,0,1,329.75,28.38Z"/><path class="d" d="M363.16,27a.78.78,0,0,0-.7.43,3,3,0,0,1-5.14.31l-.12-.18a3.56,3.56,0,0,0-.24-.36,4.53,4.53,0,0,0-3.7-1.88.78.78,0,0,0,0,1.56,3,3,0,0,1,2.44,1.25l0,0a2.31,2.31,0,0,1,.14.21c.05.09.12.19.19.29a4.61,4.61,0,0,0,7.79-.5.78.78,0,0,0,.09-.37h0A.78.78,0,0,0,363.16,27Z"/><circle class="d" cx="380.31" cy="311.38" r="1.93"/><path class="d" d="M381.73,315.45a2,2,0,0,0-2.85,0l-1.33,1.33a.59.59,0,0,0,.2,1,6.88,6.88,0,0,0,5.11,0,.59.59,0,0,0,.2-1Z"/><path class="d" d="M384.62,311.28a2,2,0,0,0-.88,2.71l.85,1.68a.59.59,0,0,0,1,.1,6.88,6.88,0,0,0,1.58-4.86.59.59,0,0,0-.85-.49Z"/><path class="d" d="M381.54,307.24a2,2,0,0,0,2.31,1.68l1.86-.29a.59.59,0,0,0,.4-.9,6.88,6.88,0,0,0-4.14-3,.59.59,0,0,0-.73.66Z"/><path class="d" d="M374.9,308.63l1.86.29a2,2,0,0,0,2.31-1.68l.29-1.86a.59.59,0,0,0-.73-.66,6.88,6.88,0,0,0-4.14,3A.59.59,0,0,0,374.9,308.63Z"/><path class="d" d="M376,311.28l-1.68-.85a.59.59,0,0,0-.85.49,6.88,6.88,0,0,0,1.58,4.86.59.59,0,0,0,1-.1l.85-1.68A2,2,0,0,0,376,311.28Z"/><path class="d" d="M391.17,320.6a1,1,0,0,1-.1-1.29,13.25,13.25,0,1,0-21.24,0,1,1,0,0,1-.1,1.29.68.68,0,0,0-.26.49c0,.74,1.73,1.39,4.41,1.8a48.65,48.65,0,0,0,13.14,0c2.68-.41,4.41-1.06,4.41-1.8A.68.68,0,0,0,391.17,320.6ZM380.45,320a8.6,8.6,0,1,1,8.6-8.6A8.6,8.6,0,0,1,380.45,320Z"/><path class="d" d="M170.24,312a10.9,10.9,0,0,0-10.9,10.9c0,6,10.9,17.45,10.9,17.45s10.9-11.43,10.9-17.45A10.9,10.9,0,0,0,170.24,312Zm0,15a4.11,4.11,0,1,1,4.11-4.11A4.12,4.12,0,0,1,170.24,327Z"/><path class="d" d="M362.16,132.77a1.83,1.83,0,0,0,1.73-1.23L365.8,126a1.54,1.54,0,0,1,1.45-1H370a1.83,1.83,0,0,0,1.83-1.83v-7.66a1.9,1.9,0,0,0-2-1.84H361.3a1.29,1.29,0,0,1-1.29-1.29v-.72a1.93,1.93,0,0,0-1.93-1.93H355v-2.4h3.33a1.15,1.15,0,0,0,0-2.29h-9a1.15,1.15,0,1,0,0,2.29h3.33v2.4h-3.17a1.93,1.93,0,0,0-1.93,1.93v.72a1.29,1.29,0,0,1-1.29,1.29h-5.55a1.93,1.93,0,0,0-1.93,1.93v4.89h-2.45v-3.33a1.15,1.15,0,1,0-2.29,0v9a1.15,1.15,0,0,0,2.29,0v-3.33h2.45v4.25a1.93,1.93,0,0,0,1.93,1.93h4.22a1.29,1.29,0,0,1,1.06.55l1.7,2.42a1.93,1.93,0,0,0,1.57.82Z"/><path class="d" d="M390.07,210.38l-.3.3-.22.23-.27.29-.26.28-.25.28-.29.34-.22.27-.33.41-.18.23-.51.66h0l-.47.69-.16.24-.29.45-.18.29-.23.39-.18.32-.19.35-.17.33-.16.32-.17.35-.12.26c-1.06,2.39-1.3,4.33-.47,4.92l.73.51,2.63,1.86,1.91,1.35a.75.75,0,0,0,1,.07s2.87-1.37,4.25-.33l4.34,3a3.29,3.29,0,0,0,4.44-.61l3-4a3.22,3.22,0,0,0-.77-4.49l-4.36-3.08c-1.47-1.1-1.11-4.11-1.11-4.11a1,1,0,0,0-.39-.89l-2-1.41-2.63-1.86-.73-.51c-.73-.56-2.12.07-3.71,1.43h0c-.26.22-.52.46-.79.72Zm10.1,9,3.89,2.68a.76.76,0,0,1,.19,1.08l-2.44,3.45a.75.75,0,0,1-1.08.19l-4-2.5Z"/><path class="d" d="M412.84,236.73l.06-.06q.34-.35.68-.73l.14-.16.25-.29.26-.31.21-.27.31-.4.17-.23.47-.65h0l.48-.67.16-.24.29-.44.18-.29.22-.37.19-.32.13-.22q.24-.42.45-.84l.06-.11.23-.47,0-.1.21-.48h0c.9-2.15,1-3.85.28-4.4l-.73-.51L413,221a1,1,0,0,0-1.39.24l-9.24,13a1,1,0,0,0,.24,1.39l4.52,3.13.73.51c.88.58,2.63-.29,4.5-2.06l.07-.06Z"/><path class="d" d="M383.52,218.07a17.07,17.07,0,0,1,2.72-5,23.55,23.55,0,0,1,3.88-4.33L380.55,202a30.07,30.07,0,0,0-6.59,9.36Z"/><path class="d" d="M419.31,229.13a24.22,24.22,0,0,1-2.79,5.1,25.41,25.41,0,0,1-3.88,4.34l9.31,6.57a30.07,30.07,0,0,0,6.61-9.38Z"/><circle class="e" cx="401.26" cy="223.55" r="30.44"/><path class="d" d="M437.38,121h0a11.22,11.22,0,0,1-1.83-13.5l-1.12-1.65a13,13,0,0,0-2.14,6.29h-1.65a.91.91,0,0,0,0,1.82h1.65a13,13,0,0,0,3.18,7.65l-1.17,1.17a.91.91,0,0,0,1.29,1.29l1.17-1.17.62-.62,0,0a.91.91,0,0,0,0-1.26Z"/><path class="d" d="M460,112.11h-1.65a13,13,0,0,0-3.18-7.65l1.17-1.17a.91.91,0,1,0-1.29-1.29l-1.17,1.17a13,13,0,0,0-7.65-3.18V98.34a.91.91,0,1,0-1.82,0V100a13,13,0,0,0-6.27,2.12q-.45.3-.88.63L433.21,100a.63.63,0,0,0-.88.88l9.15,13.48.54,1a2.57,2.57,0,0,0,.43.57h0l.08.07a4.09,4.09,0,0,0,5.63,0l.08-.07.07-.08a4.09,4.09,0,0,0,0-5.63l-.07-.08a2.6,2.6,0,0,0-.58-.43l-8.77-5.87h0q.45-.32.94-.59A11.24,11.24,0,0,1,453.28,121h0a.91.91,0,0,0,0,1.26l0,0,.62.62,1.17,1.17a.91.91,0,0,0,1.29,0h0a.91.91,0,0,0,0-1.29l-1.17-1.17a13,13,0,0,0,3.18-7.65H460a.91.91,0,1,0,0-1.82ZM444.34,112a1.4,1.4,0,1,1,0,2A1.4,1.4,0,0,1,444.34,112Z"/><path class="d" d="M204.46,41.76V24.6a3.68,3.68,0,1,0-7.35,0V41.76a6.13,6.13,0,1,0,7.35,0Zm-1.22,0a1.23,1.23,0,1,1-2.45,0V24.6a1.23,1.23,0,0,1,2.45,0Z"/><path class="d" d="M191,24a.61.61,0,0,1,.61-.61h4.29V24.6h-4.29A.61.61,0,0,1,191,24Z"/><path class="d" d="M195.88,27.05H194a.61.61,0,0,1-.61-.61h0a.61.61,0,0,1,.61-.61h1.84Z"/><path class="d" d="M194,28.28h1.84V29.5H194a.61.61,0,1,1,0-1.22Z"/><path class="d" d="M191,31.34h0a.61.61,0,0,1,.61-.61h4.29V32h-4.29A.61.61,0,0,1,191,31.34Z"/><path class="d" d="M195.88,34.4H194a.61.61,0,0,1,0-1.22h1.84Z"/><path class="d" d="M194,35.63h1.84v1.22H194a.61.61,0,0,1,0-1.22Z"/><path class="d" d="M195.88,39.31h-4.29a.61.61,0,1,1,0-1.22h4.29Z"/><path class="d" d="M506.46,71.84V46.06a3.31,3.31,0,0,0,1.63-.83l8.6,4a21.92,21.92,0,0,0-.74-3.11L509.15,43c0-.05,0-.11,0-.16a3.33,3.33,0,1,0-6.41,1.26l-7.86,7.7a3.32,3.32,0,0,0-4.65,3l-6.52,2.52a3.32,3.32,0,0,0-5.5,1h-7.52a21.9,21.9,0,0,0,.89,2.51h6.64a3.33,3.33,0,0,0,2.46,2v9q.61.44,1.25.84V62.81a3.33,3.33,0,0,0,2.7-3.21l6.52-2.52a3.31,3.31,0,0,0,1.79,1V76h1.25V58.08a3.32,3.32,0,0,0,2.45-4.53l7.86-7.7a3.29,3.29,0,0,0,.7.21V72.68Q505.85,72.28,506.46,71.84Z"/><circle class="e" cx="493.54" cy="52.3" r="23.46"/><path class="d" d="M33.59,178.52l-8.07,14,.94,0,.94,0a16.13,16.13,0,0,0,11.15-5.39l-5-8.59Z"/><path class="d" d="M12,183.6a16.24,16.24,0,0,0,11.18,8.59l5-8.59Z"/><path class="d" d="M12.92,167.42a16.23,16.23,0,0,0-1.85,14H21Z"/><path class="d" d="M24.79,169.05H40.94a16.24,16.24,0,0,0-11.18-8.59l-2,3.52-1.27,2.2Z"/><path class="d" d="M19.33,174.13l8.07-14-.94,0-.94,0a16.14,16.14,0,0,0-11.15,5.39l5,8.59Z"/><path class="d" d="M26.46,171.93a4.39,4.39,0,1,0,4.34,3.73,2.71,2.71,0,0,1-1.27.32h0a2.72,2.72,0,0,1-2.7-2.7v0a2.71,2.71,0,0,1,.32-1.27A4.43,4.43,0,0,0,26.46,171.93Z"/><path class="d" d="M41.85,171.25H31.92l8.07,14a16.23,16.23,0,0,0,1.85-14Z"/><path class="d" d="M90.43,25.33a2.25,2.25,0,0,0-2.25-2.25H86.12a2.25,2.25,0,0,0-2.25,2.25V47.72a21.43,21.43,0,0,0,6.57,1.51Z"/><path class="d" d="M81.5,28.4a2.25,2.25,0,0,0-2.25-2.25H77.19a2.25,2.25,0,0,0-2.25,2.25V41a21.65,21.65,0,0,0,6.57,5.63Z"/><path class="d" d="M99.37,19.46a2.25,2.25,0,0,0-2.25-2.25H95.06a2.25,2.25,0,0,0-2.25,2.25V49.27A21.47,21.47,0,0,0,99.37,48Z"/><path class="d" d="M108.31,17.23A2.25,2.25,0,0,0,106.05,15H104a2.25,2.25,0,0,0-2.25,2.25V46.94a21.63,21.63,0,0,0,6.57-5.18Z"/><circle class="e" cx="91.62" cy="25.47" r="23.46"/><path class="d" d="M59.11,282H31.65a2.6,2.6,0,0,0-2.59,2.59v9.95a2.6,2.6,0,0,0,2.59,2.59H59.11a2.6,2.6,0,0,0,2.59-2.59v-9.95A2.6,2.6,0,0,0,59.11,282ZM35.6,289.63a1.59,1.59,0,0,1-1.23.49,1.66,1.66,0,0,1-1.71-1.74,2,2,0,0,1,2-2c1.32,0,2,1,2,2.4a3.48,3.48,0,0,1-1,2.62,3.11,3.11,0,0,1-1.92.77,4.18,4.18,0,0,1-.64,0v-.85a2.79,2.79,0,0,0,.59,0,2.1,2.1,0,0,0,1.14-.43,2,2,0,0,0,.73-1.26Zm5.35-2.39a2,2,0,0,0-1.2.47l-.31-.75a2.79,2.79,0,0,1,1.73-.58A1.67,1.67,0,0,1,43,288.08c0,1-.71,1.78-1.7,2.69l-.49.42v0h2.3v.88H39.32v-.65l.67-.62c1.33-1.23,1.95-1.91,2-2.65A.89.89,0,0,0,40.94,287.24ZM50,290.67h-.73v1.43h-1v-1.43H45.73V290l2.3-3.51h1.26v3.4H50Zm10.38,3.89a1.3,1.3,0,0,1-1.3,1.3h-3l1.73-3.59v-.68H54v.88h2.66v0L55,295.86H52.13V283.32h2.21a3.71,3.71,0,0,0-.44,1.82A2.15,2.15,0,0,0,56,287.57a2,2,0,0,0,2-2,1.7,1.7,0,0,0-1.72-1.84,1.62,1.62,0,0,0-1.26.55h0a1.94,1.94,0,0,1,.46-.95h3.67a1.3,1.3,0,0,1,1.3,1.3Zm-5.46-9.14a.73.73,0,0,1,.07-.34,1,1,0,0,1,.92-.58,1,1,0,0,1,1,1.12c0,.68-.36,1.15-.9,1.15C55.31,286.77,55,286.16,54.94,285.42Z"/><path class="d" d="M34.64,287.16c-.54,0-.92.48-.92,1.16a.93.93,0,0,0,.93,1,1,1,0,0,0,.91-.47.71.71,0,0,0,.06-.31C35.62,287.81,35.33,287.16,34.64,287.16Z"/><path class="d" d="M47.8,288.31l-1,1.54v0h1.53v-1.53c0-.32,0-.64,0-1h0C48.12,287.71,48,288,47.8,288.31Z"/></svg>